<svg xmlns="http://www.w3.org/2000/svg" width="375" height="85" viewBox="0 0 375 85">
    <g fill="currentcolor" fill-rule="evenodd">
        <path d="M64.345 45.647l-.073.044v.018h-.032l-10.784 6.314v.034l-14.132 8.275 8.039 4.702 25.552-14.965.033-29.049-8.642-5.047-.034 29.545zM45.593 79.796L36.695 85 11.398 70.244l.036-30.008 8.323-4.867-.02 16.713.036.021-.014 12.587-.016.027.016.01v.087h.15z"/>
        <path d="M8.654 68.456l.035-29.622-.075-.13.075-.044v-.018h.032l12.187-7.097v.002l12.717-7.406-8.158-4.745L.034 34.21 0 63.43zM22.226 63.616l.011-9.5 14.187 8.336.013-.008 10.749 6.326.016.027.015-.009.072.042.072-.127 25.587-15.079-.011 10.367-25.003 14.734z"/>
        <path d="M36.476 22.663l-10.779-6.307-.016-.028-.015.01-.072-.043-.073.127-.162.095-.016.01-.072-.043-.072.127L0 31.376l.012-10.253L25.355 6.275l25.283 14.451.084 10.24-14.228-8.314z"/>
        <path d="M36.415 0L61.55 14.725l-.017 15.039-.018 15.039-8.221 4.828.018-15.833h.04l-.117-14.27.016-.029-.016-.01v-.087l-.15.002-25.16-14.418zM133.605 30.023a10.2 10.2 0 0 0-3.906-3.128 11.499 11.499 0 0 0-4.883-1.095c-2.056 0-3.924.4-5.603 1.2a12.9 12.9 0 0 0-4.266 3.18c-1.165 1.355-2.073 2.954-2.724 4.797-.652 1.807-.977 3.754-.977 5.84 0 1.946.308 3.788.925 5.526s1.508 3.267 2.673 4.588c1.165 1.321 2.587 2.364 4.266 3.129 1.68.764 3.581 1.147 5.706 1.147 2.09 0 3.923-.435 5.5-1.304 1.575-.869 2.912-2.085 4.009-3.65l4.163 3.181c-.274.383-.754.939-1.44 1.668-.684.696-1.593 1.408-2.723 2.138-1.13.696-2.502 1.304-4.113 1.825-1.576.556-3.409.834-5.5.834-2.877 0-5.482-.556-7.812-1.668-2.296-1.113-4.266-2.573-5.911-4.38a19.47 19.47 0 0 1-3.7-6.1c-.858-2.294-1.286-4.606-1.286-6.935 0-2.85.463-5.474 1.388-7.873.925-2.433 2.21-4.519 3.855-6.257 1.679-1.772 3.684-3.145 6.014-4.119 2.33-.973 4.9-1.46 7.71-1.46 2.398 0 4.746.47 7.041 1.408 2.33.939 4.233 2.381 5.706 4.328l-4.112 3.18zM149.316 21.678h4.939v32.367h16.718v4.713h-21.657zM181.8 21.678h23.578v4.713h-18.624v11.051h17.334v4.714h-17.334v11.889h19.553v4.713h-24.506zM231.067 21.678h4.52l15.743 37.08h-5.82l-3.688-9.165h-17.51l-3.637 9.165h-5.82l16.212-37.08zm8.865 23.39l-6.737-17.115h-.103l-6.838 17.114h13.678zM259.878 21.678h12.978c2.363 0 4.309.332 5.837.995 1.529.628 2.728 1.449 3.596 2.462a8.023 8.023 0 0 1 1.877 3.351c.347 1.222.521 2.41.521 3.562 0 1.187-.209 2.34-.625 3.456a9.87 9.87 0 0 1-1.824 2.986c-.765.873-1.72 1.623-2.867 2.252-1.112.593-2.363.96-3.753 1.1l10.476 16.916h-6.254l-9.381-16.34h-5.577v16.34h-5.004v-37.08zm5.13 16.543h6.457c.957 0 1.896-.07 2.819-.21.957-.175 1.793-.473 2.511-.893a4.68 4.68 0 0 0 1.794-1.786c.444-.806.666-1.84.666-3.1 0-1.261-.222-2.277-.666-3.048-.444-.806-1.042-1.419-1.794-1.839-.718-.42-1.554-.7-2.511-.84a15.077 15.077 0 0 0-2.82-.263h-6.456v11.98zM317.551 51.244c.9 1.356 2.043 2.364 3.427 3.024a10.71 10.71 0 0 0 4.361.939c.83 0 1.68-.122 2.545-.365a7.836 7.836 0 0 0 2.336-1.2 6.26 6.26 0 0 0 1.765-1.929c.45-.764.675-1.65.675-2.659 0-1.425-.45-2.502-1.35-3.232-.9-.765-2.025-1.39-3.374-1.877a45.816 45.816 0 0 0-4.362-1.46 19.078 19.078 0 0 1-4.361-1.982c-1.315-.834-2.423-1.946-3.323-3.337-.9-1.425-1.35-3.337-1.35-5.735 0-1.077.225-2.225.675-3.441.485-1.217 1.228-2.33 2.233-3.337 1.003-1.008 2.284-1.842 3.841-2.503 1.593-.695 3.496-1.043 5.712-1.043 2.008 0 3.929.278 5.763.835 1.834.556 3.444 1.685 4.828 3.389l-4.049 3.702c-.623-.974-1.506-1.756-2.648-2.347-1.142-.59-2.44-.886-3.894-.886-1.384 0-2.544.191-3.479.573-.9.348-1.627.817-2.18 1.408-.554.556-.952 1.165-1.195 1.825-.207.66-.311 1.269-.311 1.825 0 1.564.45 2.763 1.35 3.598.9.834 2.008 1.512 3.323 2.033 1.35.522 2.804.99 4.361 1.408 1.592.417 3.046 1.008 4.362 1.773a9.72 9.72 0 0 1 3.374 3.024c.9 1.251 1.35 2.99 1.35 5.214 0 1.772-.346 3.371-1.038 4.797-.658 1.425-1.558 2.624-2.7 3.597-1.142.973-2.493 1.72-4.05 2.242-1.558.522-3.219.782-4.984.782-2.354 0-4.587-.417-6.698-1.251-2.112-.834-3.79-2.12-5.036-3.858l4.101-3.546zM358.274 26.391h-11.77v-4.713H375v4.713h-11.77v32.367h-4.956z"/>
    </g>
</svg>
